<svg id="Layer_1" data-name="Layer 1" xmlns="http://www.w3.org/2000/svg" viewBox="0 0 336 356"><defs><style>.cls-1{fill:#91288b;}.cls-2{fill:#63c0dd;}</style></defs><title>RsLogo</title><path class="cls-1" d="M206.55,160.75c0-18-12.32-31.16-32.46-31.16H128.87v96.67h20.58V191.62h15.07l19,34.64h23.62l-21.74-36.81C195.83,187,206.55,177.86,206.55,160.75Z"/><polygon class="cls-2" points="139 99 139 79 79 79 79 89 79 99 79 257 79 267 79 277 139 277 139 257 99 257 99 99 139 99"/><polygon class="cls-2" points="197 99 197 79 257 79 257 89 257 99 257 257 257 267 257 277 197 277 197 257 237 257 237 99 197 99"/></svg>