<svg id="Layer_1" data-name="Layer 1" xmlns="http://www.w3.org/2000/svg" viewBox="0 0 876 356"><defs><style>.cls-1{fill:#91288b;}.cls-2{fill:#63c0dd;}</style></defs><title>RsLogo</title><path class="cls-1" d="M206.55,160.75c0-18-12.32-31.16-32.46-31.16H128.87v96.67h20.58V191.62h15.07l19,34.64h23.62l-21.74-36.81C195.83,187,206.55,177.86,206.55,160.75Z"/><path class="cls-1" d="M264.39,128C235.26,128,214,148.87,214,178s21.3,50,50.43,50c29.28,0,50.58-20.87,50.58-50S293.67,128,264.39,128Zm0,81.74c-17.83,0-29.27-13.77-29.27-31.74,0-18.12,11.44-31.74,29.27-31.74s29.42,13.62,29.42,31.74C293.81,196,282.22,209.74,264.39,209.74Z"/><path class="cls-1" d="M373.28,146.26a26.45,26.45,0,0,1,23.47,14.06l17.69-8.7c-6.82-12-19.13-23.62-41.16-23.62-28.27,0-50.73,20.29-50.73,50s22.46,50,50.73,50c22,0,34.2-11.74,41.16-23.77l-17.69-8.55a26.19,26.19,0,0,1-23.47,14.06c-16.82,0-29.57-13.48-29.57-31.74S356.46,146.26,373.28,146.26Z"/><polygon class="cls-1" points="504.84 129.59 479.48 129.59 445.28 172.78 445.28 129.59 424.7 129.59 424.7 226.26 445.28 226.26 445.28 196.55 452.81 187.56 482.09 226.26 507.45 226.26 466.44 174.96 504.84 129.59"/><path class="cls-1" d="M550.45,167.13c-11.16-2.61-19.28-4.64-19.28-11.16,0-5.8,4.93-9.85,14.21-9.85a41.23,41.23,0,0,1,27.68,10.58l11.45-15.08c-9.57-8.84-22.32-13.48-37.68-13.48-22.76,0-36.67,13.05-36.67,29.14,0,21.59,20.29,25.94,36.09,29.56,11.16,2.61,19.56,5.07,19.56,12.32,0,5.51-5.51,10.87-16.81,10.87a42.38,42.38,0,0,1-30.72-13L507,212.64c9.13,9.13,22.47,15.36,41,15.36,26.08,0,38.69-13.33,38.69-31C586.68,175.54,566.39,170.75,550.45,167.13Z"/><polygon class="cls-1" points="599.07 226.26 667.48 226.26 667.48 208.44 619.65 208.44 619.65 185.97 666.47 185.97 666.47 168.29 619.65 168.29 619.65 147.28 667.48 147.28 667.48 129.59 599.07 129.59 599.07 226.26"/><polygon class="cls-1" points="675.03 129.59 675.03 147.71 703.29 147.71 703.29 226.26 724.02 226.26 724.02 147.71 752.13 147.71 752.13 129.59 675.03 129.59"/><polygon class="cls-2" points="139 99 139 79 79 79 79 89 79 99 79 257 79 267 79 277 139 277 139 257 99 257 99 99 139 99"/><polygon class="cls-2" points="737 99 737 79 797 79 797 89 797 99 797 257 797 267 797 277 737 277 737 257 777 257 777 99 737 99"/></svg>